# Blender v2.77 (sub 0) OBJ File: ''
# www.blender.org
v -0.000000 3.479531 -0.208445
v 0.040666 3.479531 -0.204439
v 0.079768 3.479531 -0.192578
v 0.115806 3.479531 -0.173315
v 0.147393 3.479531 -0.147393
v 0.173315 3.479531 -0.115806
v 0.192578 3.479531 -0.079768
v 0.204439 3.479531 -0.040666
v 0.208445 3.479531 -0.000000
v 0.000000 4.258368 0.000000
v 0.204439 3.479531 0.040665
v 0.192578 3.479531 0.079768
v 0.173315 3.479531 0.115806
v 0.147393 3.479531 0.147393
v 0.115806 3.479531 0.173315
v 0.079768 3.479531 0.192578
v 0.040665 3.479531 0.204439
v -0.000000 3.479531 0.208445
v -0.040666 3.479531 0.204439
v -0.079768 3.479531 0.192578
v -0.115806 3.479531 0.173315
v -0.147393 3.479531 0.147393
v -0.173315 3.479531 0.115806
v -0.192578 3.479531 0.079768
v -0.204439 3.479531 0.040665
v -0.208445 3.479531 -0.000000
v -0.204439 3.479531 -0.040666
v -0.192578 3.479531 -0.079769
v -0.173315 3.479531 -0.115806
v -0.147392 3.479531 -0.147393
v -0.115805 3.479531 -0.173316
v -0.079768 3.479531 -0.192578
v -0.040665 3.479531 -0.204439
v 0.000000 3.479531 -0.389419
v 0.075972 3.479531 -0.381936
v 0.149024 3.479531 -0.359776
v 0.216349 3.479531 -0.323790
v 0.275361 3.479531 -0.275361
v 0.323790 3.479531 -0.216349
v 0.359776 3.479531 -0.149024
v 0.381936 3.479531 -0.075972
v 0.389419 3.479531 -0.000000
v 0.381936 3.479531 0.075972
v 0.359776 3.479531 0.149024
v 0.323790 3.479531 0.216349
v 0.275361 3.479531 0.275361
v 0.216349 3.479531 0.323790
v 0.149024 3.479531 0.359776
v 0.075972 3.479531 0.381936
v -0.000000 3.479531 0.389419
v -0.075972 3.479531 0.381936
v -0.149024 3.479531 0.359776
v -0.216350 3.479531 0.323790
v -0.275361 3.479531 0.275360
v -0.323790 3.479531 0.216349
v -0.359776 3.479531 0.149024
v -0.381936 3.479531 0.075971
v -0.389419 3.479531 -0.000000
v -0.381936 3.479531 -0.075972
v -0.359776 3.479531 -0.149024
v -0.323789 3.479531 -0.216350
v -0.275360 3.479531 -0.275361
v -0.216349 3.479531 -0.323790
v -0.149024 3.479531 -0.359776
v -0.075971 3.479531 -0.381936
v -0.000000 0.272495 -0.208445
v 0.040666 0.272495 -0.204439
v 0.079768 0.272495 -0.192578
v 0.115806 0.272495 -0.173315
v 0.147393 0.272495 -0.147393
v 0.173315 0.272495 -0.115806
v 0.192578 0.272495 -0.079768
v 0.204439 0.272495 -0.040666
v 0.208445 0.272495 -0.000000
v 0.204439 0.272495 0.040665
v 0.192578 0.272495 0.079768
v 0.173315 0.272495 0.115806
v 0.147393 0.272495 0.147393
v 0.115806 0.272495 0.173315
v 0.079768 0.272495 0.192578
v 0.040666 0.272495 0.204439
v -0.000000 0.272495 0.208445
v -0.040666 0.272495 0.204439
v -0.079768 0.272495 0.192578
v -0.115806 0.272495 0.173315
v -0.147393 0.272495 0.147393
v -0.173315 0.272495 0.115806
v -0.192578 0.272495 0.079768
v -0.204439 0.272495 0.040665
v -0.208445 0.272495 -0.000000
v -0.204439 0.272495 -0.040666
v -0.192578 0.272495 -0.079769
v -0.173315 0.272495 -0.115806
v -0.147392 0.272495 -0.147393
v -0.115805 0.272495 -0.173316
v -0.079768 0.272495 -0.192578
v -0.040665 0.272495 -0.204439
v -0.000000 -0.222184 -0.208445
v 0.040666 -0.222184 -0.204439
v 0.079768 -0.222184 -0.192578
v 0.115806 -0.222184 -0.173315
v 0.147393 -0.222184 -0.147393
v 0.173315 -0.222184 -0.115806
v 0.192578 -0.222184 -0.079768
v 0.204439 -0.222184 -0.040666
v 0.208445 -0.222184 -0.000000
v 0.204439 -0.222184 0.040665
v 0.192578 -0.222184 0.079768
v 0.173315 -0.222184 0.115806
v 0.147393 -0.222184 0.147393
v 0.115806 -0.222184 0.173315
v 0.079768 -0.222184 0.192578
v 0.040666 -0.222184 0.204439
v -0.000000 -0.222184 0.208445
v -0.040666 -0.222184 0.204439
v -0.079768 -0.222184 0.192578
v -0.115806 -0.222184 0.173315
v -0.147393 -0.222184 0.147393
v -0.173315 -0.222184 0.115806
v -0.192578 -0.222184 0.079768
v -0.204439 -0.222184 0.040665
v -0.208445 -0.222184 -0.000000
v -0.204439 -0.222184 -0.040666
v -0.192578 -0.222184 -0.079769
v -0.173315 -0.222184 -0.115806
v -0.147392 -0.222184 -0.147393
v -0.115805 -0.222184 -0.173316
v -0.079768 -0.222184 -0.192578
v -0.040665 -0.222184 -0.204439
v 2.714203 0.272495 -0.040667
v 2.718208 0.272495 -0.000001
v 2.714203 0.272495 0.040664
v 2.714203 -0.222184 -0.040667
v 2.718208 -0.222184 -0.000001
v 2.714203 -0.222184 0.040664
v 0.000001 0.272495 -2.495979
v 0.040666 0.272495 -2.491974
v -0.040665 0.272495 -2.491974
v 0.000001 -0.222184 -2.495979
v 0.040666 -0.222184 -2.491974
v -0.040665 -0.222184 -2.491974
v 0.000000 0.272495 -2.757936
v 0.040666 0.272495 -2.753931
v -0.040665 0.272495 -2.753931
v 0.000000 -0.222184 -2.757936
v 0.040666 -0.222184 -2.753931
v -0.040665 -0.222184 -2.753931
v 0.000001 0.272495 -2.495979
v 0.040666 0.272495 -2.491974
v -0.040665 0.272495 -2.491974
v 0.000001 -0.222184 -2.495979
v 0.040666 -0.222184 -2.491974
v -0.040665 -0.222184 -2.491974
v -0.040665 -0.222184 -2.753931
v 0.000000 0.272495 -2.757936
v 0.040666 0.272495 -2.753931
v -0.040665 0.272495 -2.753931
v 0.000000 -0.222184 -2.757936
v 0.040666 -0.222184 -2.753931
v 0.000001 -0.430085 -2.495979
v 0.040666 -0.430085 -2.491974
v -0.040665 -0.430085 -2.491974
v -0.040665 -0.430085 -2.753931
v 0.000000 -0.430085 -2.757936
v 0.040666 -0.430085 -2.753931
v -0.040665 0.503856 -2.753931
v -0.040665 0.503856 -2.753931
v -0.040665 0.503856 -2.491974
v 0.000001 0.503856 -2.495979
v 0.040666 0.503856 -2.491974
v -0.040665 0.503856 -2.491974
v 0.000000 0.503856 -2.757936
v 0.040666 0.503856 -2.753931
vn 0.0878 0.4455 -0.8910
vn 0.2599 0.4455 -0.8567
vn 0.4220 0.4455 -0.7896
vn 0.5680 0.4455 -0.6921
vn 0.6921 0.4455 -0.5680
vn 0.7896 0.4455 -0.4220
vn 0.8567 0.4455 -0.2599
vn 0.8910 0.4455 -0.0878
vn 0.8910 0.4455 0.0878
vn 0.8567 0.4455 0.2599
vn 0.7896 0.4455 0.4220
vn 0.6921 0.4455 0.5680
vn 0.5680 0.4455 0.6921
vn 0.4220 0.4455 0.7896
vn 0.2599 0.4455 0.8567
vn 0.0878 0.4455 0.8910
vn -0.0878 0.4455 0.8910
vn -0.2599 0.4455 0.8567
vn -0.4220 0.4455 0.7896
vn -0.5680 0.4455 0.6921
vn -0.6921 0.4455 0.5680
vn -0.7896 0.4455 0.4220
vn -0.8567 0.4455 0.2599
vn -0.8910 0.4455 0.0878
vn -0.8910 0.4455 -0.0878
vn -0.8567 0.4455 -0.2599
vn -0.7896 0.4455 -0.4220
vn -0.6921 0.4455 -0.5680
vn -0.5680 0.4455 -0.6921
vn -0.4220 0.4455 -0.7896
vn -0.2599 0.4455 -0.8567
vn -0.0878 0.4455 -0.8910
vn -0.8819 -0.0000 0.4714
vn 0.0000 -1.0000 0.0000
vn -0.9952 0.0000 -0.0980
vn 0.9952 0.0000 0.0980
vn -0.9569 0.0000 0.2903
vn 0.9569 0.0000 0.2903
vn -0.9952 -0.0000 0.0980
vn 0.8819 0.0000 0.4714
vn 0.7730 0.0000 0.6344
vn -0.9569 -0.0000 -0.2903
vn 0.6344 0.0000 0.7730
vn -0.8819 -0.0000 -0.4714
vn 0.4714 0.0000 0.8819
vn 0.0980 0.0000 -0.9952
vn -0.7730 -0.0000 -0.6344
vn 0.2903 0.0000 0.9569
vn 0.2903 0.0000 -0.9569
vn -0.6344 -0.0000 -0.7730
vn 0.0980 0.0000 0.9952
vn 0.4714 0.0000 -0.8819
vn -0.4714 -0.0000 -0.8819
vn -0.0980 -0.0000 0.9952
vn 0.6344 0.0000 -0.7730
vn -0.2903 -0.0000 -0.9569
vn -0.2903 -0.0000 0.9569
vn 0.7730 0.0000 -0.6344
vn -0.0980 -0.0000 -0.9952
vn -0.4714 -0.0000 0.8819
vn 0.8819 0.0000 -0.4714
vn -0.6344 -0.0000 0.7730
vn 0.9569 0.0000 -0.2903
vn -0.7730 0.0000 0.6344
vn 0.9952 0.0000 -0.0980
vn 0.0000 1.0000 0.0000
vn 0.0000 0.0000 1.0000
vn -0.0000 0.0000 -1.0000
vn -1.0000 0.0000 -0.0000
vn 1.0000 -0.0000 0.0000
s off
f 34//1 10//1 35//1
f 35//2 10//2 36//2
f 36//3 10//3 37//3
f 37//4 10//4 38//4
f 38//5 10//5 39//5
f 39//6 10//6 40//6
f 40//7 10//7 41//7
f 41//8 10//8 42//8
f 42//9 10//9 43//9
f 43//10 10//10 44//10
f 44//11 10//11 45//11
f 45//12 10//12 46//12
f 46//13 10//13 47//13
f 47//14 10//14 48//14
f 48//15 10//15 49//15
f 49//16 10//16 50//16
f 50//17 10//17 51//17
f 51//18 10//18 52//18
f 52//19 10//19 53//19
f 53//20 10//20 54//20
f 54//21 10//21 55//21
f 55//22 10//22 56//22
f 56//23 10//23 57//23
f 57//24 10//24 58//24
f 58//25 10//25 59//25
f 59//26 10//26 60//26
f 60//27 10//27 61//27
f 61//28 10//28 62//28
f 62//29 10//29 63//29
f 63//30 10//30 64//30
f 64//31 10//31 65//31
f 65//32 10//32 34//32
f 24//33 87//33 23//33
f 1//34 35//34 2//34
f 2//34 36//34 3//34
f 3//34 37//34 4//34
f 4//34 38//34 5//34
f 6//34 38//34 39//34
f 6//34 40//34 7//34
f 7//34 41//34 8//34
f 9//34 41//34 42//34
f 11//34 42//34 43//34
f 11//34 44//34 12//34
f 12//34 45//34 13//34
f 14//34 45//34 46//34
f 14//34 47//34 15//34
f 15//34 48//34 16//34
f 16//34 49//34 17//34
f 17//34 50//34 18//34
f 18//34 51//34 19//34
f 19//34 52//34 20//34
f 21//34 52//34 53//34
f 21//34 54//34 22//34
f 22//34 55//34 23//34
f 23//34 56//34 24//34
f 25//34 56//34 57//34
f 25//34 58//34 26//34
f 26//34 59//34 27//34
f 28//34 59//34 60//34
f 28//34 61//34 29//34
f 29//34 62//34 30//34
f 30//34 63//34 31//34
f 31//34 64//34 32//34
f 33//34 64//34 65//34
f 33//34 34//34 1//34
f 91//35 122//35 90//35
f 11//36 74//36 9//36
f 25//37 88//37 24//37
f 12//38 75//38 11//38
f 26//39 89//39 25//39
f 13//40 76//40 12//40
f 27//35 90//35 26//35
f 14//41 77//41 13//41
f 28//42 91//42 27//42
f 15//43 78//43 14//43
f 29//44 92//44 28//44
f 16//45 79//45 15//45
f 2//46 66//46 1//46
f 30//47 93//47 29//47
f 17//48 80//48 16//48
f 3//49 67//49 2//49
f 31//50 94//50 30//50
f 18//51 81//51 17//51
f 4//52 68//52 3//52
f 32//53 95//53 31//53
f 19//54 82//54 18//54
f 5//55 69//55 4//55
f 33//56 96//56 32//56
f 20//57 83//57 19//57
f 6//58 70//58 5//58
f 1//59 97//59 33//59
f 21//60 84//60 20//60
f 7//61 71//61 6//61
f 22//62 85//62 21//62
f 8//63 72//63 7//63
f 23//64 86//64 22//64
f 9//65 73//65 8//65
f 113//34 121//34 129//34
f 78//41 109//41 77//41
f 92//42 123//42 91//42
f 79//43 110//43 78//43
f 93//44 124//44 92//44
f 80//45 111//45 79//45
f 66//66 138//66 97//66
f 94//47 125//47 93//47
f 81//48 112//48 80//48
f 68//49 99//49 67//49
f 95//50 126//50 94//50
f 82//51 113//51 81//51
f 69//52 100//52 68//52
f 96//53 127//53 95//53
f 83//54 114//54 82//54
f 70//55 101//55 69//55
f 97//56 128//56 96//56
f 84//57 115//57 83//57
f 71//58 102//58 70//58
f 66//66 137//66 136//66
f 85//60 116//60 84//60
f 72//61 103//61 71//61
f 86//62 117//62 85//62
f 73//63 104//63 72//63
f 87//64 118//64 86//64
f 107//67 132//67 75//67
f 88//33 119//33 87//33
f 106//34 135//34 107//34
f 89//37 120//37 88//37
f 76//38 107//38 75//38
f 90//39 121//39 89//39
f 77//40 108//40 76//40
f 131//65 133//65 130//65
f 132//36 134//36 131//36
f 73//68 133//68 105//68
f 74//66 130//66 73//66
f 106//34 133//34 134//34
f 74//66 132//66 131//66
f 145//67 159//67 158//67
f 136//67 149//67 148//67
f 98//34 140//34 99//34
f 98//34 141//34 139//34
f 97//69 141//69 129//69
f 99//70 137//70 67//70
f 143//46 145//46 142//46
f 142//59 147//59 144//59
f 138//69 147//69 141//69
f 139//67 153//67 151//67
f 142//67 157//67 155//67
f 146//67 156//67 159//67
f 148//51 171//51 150//51
f 152//70 165//70 159//70
f 152//70 156//70 149//70
f 154//69 162//69 153//69
f 157//67 166//67 167//67
f 157//59 172//59 155//59
f 137//67 152//67 149//67
f 138//67 148//67 150//67
f 147//67 158//67 154//67
f 141//67 154//67 153//67
f 143//67 155//67 156//67
f 140//67 151//67 152//67
f 160//34 163//34 164//34
f 160//34 165//34 161//34
f 153//51 160//51 151//51
f 159//46 164//46 158//46
f 151//54 161//54 152//54
f 158//59 163//59 154//59
f 169//66 167//66 171//66
f 169//66 173//66 172//66
f 166//67 171//67 167//67
f 138//67 171//67 168//67
f 138//69 166//69 144//69
f 155//46 173//46 156//46
f 156//70 170//70 149//70
f 149//54 169//54 148//54
f 24//33 88//33 87//33
f 1//34 34//34 35//34
f 2//34 35//34 36//34
f 3//34 36//34 37//34
f 4//34 37//34 38//34
f 6//34 5//34 38//34
f 6//34 39//34 40//34
f 7//34 40//34 41//34
f 9//34 8//34 41//34
f 11//34 9//34 42//34
f 11//34 43//34 44//34
f 12//34 44//34 45//34
f 14//34 13//34 45//34
f 14//34 46//34 47//34
f 15//34 47//34 48//34
f 16//34 48//34 49//34
f 17//34 49//34 50//34
f 18//34 50//34 51//34
f 19//34 51//34 52//34
f 21//34 20//34 52//34
f 21//34 53//34 54//34
f 22//34 54//34 55//34
f 23//34 55//34 56//34
f 25//34 24//34 56//34
f 25//34 57//34 58//34
f 26//34 58//34 59//34
f 28//34 27//34 59//34
f 28//34 60//34 61//34
f 29//34 61//34 62//34
f 30//34 62//34 63//34
f 31//34 63//34 64//34
f 33//34 32//34 64//34
f 33//34 65//34 34//34
f 91//35 123//35 122//35
f 11//36 75//36 74//36
f 25//37 89//37 88//37
f 12//38 76//38 75//38
f 26//39 90//39 89//39
f 13//40 77//40 76//40
f 27//35 91//35 90//35
f 14//41 78//41 77//41
f 28//42 92//42 91//42
f 15//43 79//43 78//43
f 29//44 93//44 92//44
f 16//45 80//45 79//45
f 2//46 67//46 66//46
f 30//47 94//47 93//47
f 17//48 81//48 80//48
f 3//49 68//49 67//49
f 31//50 95//50 94//50
f 18//51 82//51 81//51
f 4//52 69//52 68//52
f 32//53 96//53 95//53
f 19//54 83//54 82//54
f 5//55 70//55 69//55
f 33//56 97//56 96//56
f 20//57 84//57 83//57
f 6//58 71//58 70//58
f 1//59 66//59 97//59
f 21//60 85//60 84//60
f 7//61 72//61 71//61
f 22//62 86//62 85//62
f 8//63 73//63 72//63
f 23//64 87//64 86//64
f 9//65 74//65 73//65
f 129//34 98//34 99//34
f 99//34 100//34 129//34
f 101//34 102//34 105//34
f 103//34 104//34 105//34
f 105//34 106//34 107//34
f 107//34 108//34 105//34
f 109//34 110//34 111//34
f 111//34 112//34 109//34
f 113//34 114//34 115//34
f 115//34 116//34 117//34
f 117//34 118//34 119//34
f 119//34 120//34 117//34
f 121//34 122//34 125//34
f 123//34 124//34 125//34
f 125//34 126//34 127//34
f 127//34 128//34 129//34
f 129//34 100//34 101//34
f 102//34 103//34 105//34
f 105//34 108//34 109//34
f 109//34 112//34 113//34
f 113//34 115//34 121//34
f 117//34 120//34 121//34
f 122//34 123//34 125//34
f 125//34 127//34 121//34
f 129//34 101//34 105//34
f 105//34 109//34 113//34
f 115//34 117//34 121//34
f 121//34 127//34 129//34
f 129//34 105//34 113//34
f 78//41 110//41 109//41
f 92//42 124//42 123//42
f 79//43 111//43 110//43
f 93//44 125//44 124//44
f 80//45 112//45 111//45
f 66//66 136//66 138//66
f 94//47 126//47 125//47
f 81//48 113//48 112//48
f 68//49 100//49 99//49
f 95//50 127//50 126//50
f 82//51 114//51 113//51
f 69//52 101//52 100//52
f 96//53 128//53 127//53
f 83//54 115//54 114//54
f 70//55 102//55 101//55
f 97//56 129//56 128//56
f 84//57 116//57 115//57
f 71//58 103//58 102//58
f 66//66 67//66 137//66
f 85//60 117//60 116//60
f 72//61 104//61 103//61
f 86//62 118//62 117//62
f 73//63 105//63 104//63
f 87//64 119//64 118//64
f 107//67 135//67 132//67
f 88//33 120//33 119//33
f 106//34 134//34 135//34
f 89//37 121//37 120//37
f 76//38 108//38 107//38
f 90//39 122//39 121//39
f 77//40 109//40 108//40
f 131//65 134//65 133//65
f 132//36 135//36 134//36
f 73//68 130//68 133//68
f 74//66 131//66 130//66
f 106//34 105//34 133//34
f 74//66 75//66 132//66
f 145//67 146//67 159//67
f 136//67 137//67 149//67
f 98//34 139//34 140//34
f 98//34 129//34 141//34
f 97//69 138//69 141//69
f 99//70 140//70 137//70
f 143//46 146//46 145//46
f 142//59 145//59 147//59
f 138//69 144//69 147//69
f 139//67 141//67 153//67
f 142//67 144//67 157//67
f 146//67 143//67 156//67
f 148//51 169//51 171//51
f 152//70 161//70 165//70
f 152//70 159//70 156//70
f 154//69 163//69 162//69
f 157//67 144//67 166//67
f 157//59 167//59 172//59
f 137//67 140//67 152//67
f 138//67 136//67 148//67
f 147//67 145//67 158//67
f 141//67 147//67 154//67
f 143//67 142//67 155//67
f 140//67 139//67 151//67
f 160//34 162//34 163//34
f 160//34 164//34 165//34
f 153//51 162//51 160//51
f 159//46 165//46 164//46
f 151//54 160//54 161//54
f 158//59 164//59 163//59
f 169//66 172//66 167//66
f 169//66 170//66 173//66
f 166//67 168//67 171//67
f 138//67 150//67 171//67
f 138//69 168//69 166//69
f 155//46 172//46 173//46
f 156//70 173//70 170//70
f 149//54 170//54 169//54
